# xmcd CD database file
# Generated: Mon Aug 29 18:34:11 2005 by KSCD
# 
# Track frame offsets:
#       150
#       16423
#       31476
#       48686
#       67888
#       83233
#       98268
#       113482
#       124221
#       136727
#       154715
#       173680
#       189423
#       201574
#       219043
#       237029
#       254772
#       272068
#       288528
#       299184
#       311353
#       330614
#
# Disc length: 4714 seconds
#
# Revision: 1
# Processed by: cddbd v1.5.1PL0 Copyright (c) Steve Scherf et al.
# Submitted via: Kscd 1.3.3
#
DISCID=3d126816
DTITLE=Jacob Summer 2005 CD 1 - Various Artists
DYEAR=1900
DGENRE=
TTITLE0=Something More
TTITLE1=Redneck Girl
TTITLE2=As Good As I Once Was
TTITLE3=Real Good Man
TTITLE4=Songs About Me
TTITLE5=Hillbillies
TTITLE6=That's What I Love About Sunday
TTITLE7=Mel McDaniel - Greatest Hits - 01 - Lousiana Saturday Night
TTITLE8=I'm A Believer
TTITLE9=Do You Want Fries with that
TTITLE10=Baby Girl
TTITLE11=Mud On The Tires
TTITLE12=All Things Considered
TTITLE13=Mississippi Girl
TTITLE14=Boondocks
TTITLE15=Big Times
TTITLE16=Austin
TTITLE17=Little Moments
TTITLE18=What's a Guy Gotta Do
TTITLE19=Josh Gracin - Josh Gracin - 03 - Nothin' To Lose
TTITLE20=Something To Be Proud Of
TTITLE21=Hicktown
EXTD=
EXTT0=
EXTT1=
EXTT2=
EXTT3=
EXTT4=
EXTT5=
EXTT6=
EXTT7=
EXTT8=
EXTT9=
EXTT10=
EXTT11=
EXTT12=
EXTT13=
EXTT14=
EXTT15=
EXTT16=
EXTT17=
EXTT18=
EXTT19=
EXTT20=
EXTT21=
PLAYORDER=
